<svg xmlns="http://www.w3.org/2000/svg" width="256" height="256" viewBox="-267 179 256 256" enable-background="new -267 179 256 256"><style type="text/css">.st0{fill:#FFFFFF;} .st1{fill:none;stroke:#FFFFFF;stroke-width:8.2343;stroke-miterlimit:10;} .st2{fill:none;stroke:#FFFFFF;stroke-width:8.2343;stroke-linecap:round;stroke-linejoin:round;stroke-miterlimit:10;}</style><g id="XMLID_1_"><path class="st0" d="M-106.6 321.5l-6.7 9.5-6.2-9.5-6.7 9.5-6.2-9.5-6.7 9.5-6.2-9.5-6.7 9.5-6.2-9.5-6.7 9.5-6.1-9.5-6.8 9.5-6.2-9.5-6.7 9.5-1.6-2.6-4.5-7-6.7 9.5-6.2-9.5-6.7 9.5-6.2-9.5-6.7 9.5.1.2c-13.9-6.1-23.7-20.1-23.7-36.3 0-18.8 13-34.6 30.5-38.6-1.4-3.7-2.3-7.8-2.3-12.1 0-18.3 14.9-33 33.1-33 4.2 0 8.1.8 11.7 2.1 3.9-17.7 19.8-31.1 38.8-31.1 18.6 0 34.3 12.9 38.5 30.2 3-.8 6-1.3 9.2-1.3 18.3 0 33.1 14.8 33.1 33 0 3.9-.8 7.7-2 11.2 20.2 1.9 36 18.9 36 39.6 0 15.2-8.6 28.3-21.1 35l-5.9-8.4-6.2 9.5h-1.6l-6.2-9.5-6.7 9.5-6.2-9.5-6.7 9.5-3-4.5-3.3-5-.9 1.3-5.8 8.3-6.7-9.5z"/><path class="st1" d="M-229.8 331.2c-13.9-6.1-23.7-20.1-23.7-36.3 0-18.8 13-34.6 30.5-38.6-1.4-3.7-2.3-7.8-2.3-12.1 0-18.3 14.9-33 33.1-33 4.2 0 8.1.8 11.7 2.1 3.9-17.7 19.8-31.1 38.8-31.1 18.6 0 34.3 12.9 38.5 30.2 3-.8 6-1.3 9.2-1.3 18.3 0 33.1 14.8 33.1 33 0 3.9-.8 7.7-2 11.2 20.2 1.9 36 18.9 36 39.6 0 15.2-8.6 28.3-21.1 35"/><path class="st2" d="M-74.5 331.1l6.7-9.5 6.2 9.5h1.6l6.2-9.5 5.9 8.4.8 1.1-38.9 90.3c-18.2 10.4-36.8 13.4-53.1 13-29.6-.8-52.1-13-52.1-13l-38.7-90.2-.1-.2 6.7-9.5 6.2 9.5M-216.9 331.1l6.7-9.6 6.2 9.5v.1M-191.1 331.1l-1.6-2.6-4.5-7-6.8 9.5v.1M-191.1 331.1l6.8-9.6 6.2 9.6M-178.1 331.1l6.8-9.6 6.1 9.6M-165.2 331.1l6.8-9.6 6.2 9.6M-152.2 331.1l6.7-9.6 6.3 9.6M-139.2 331.1l6.7-9.6 6.2 9.6M-126.3 331.1l6.8-9.6 6.2 9.6M-113.3 331.1l6.7-9.6 6.2 9.6M-87.4 331.1v-.1l-3-4.5-3.3-5-.9 1.3-5.8 8.3M-87.5 331.1l.1-.1 6.6-9.5 6.3 9.6M-138.5 348.2v65.9M-169.5 409.5l-19-61.3M-106.6 409.5l19.1-61.3"/></g></svg>