<?xml version="1.0" encoding="utf-8"?>
<!-- Generator: Adobe Illustrator 18.1.0, SVG Export Plug-In . SVG Version: 6.00 Build 0)  -->
<svg version="1.1" id="Layer_1" xmlns="http://www.w3.org/2000/svg" xmlns:xlink="http://www.w3.org/1999/xlink" x="0px" y="0px"
	 width="256px" height="256px" viewBox="-267 179 256 256" style="enable-background:new -267 179 256 256;" xml:space="preserve">
<style type="text/css">
	.st0{fill:#FFFFFF;}
	.st1{fill:none;stroke:#FFFFFF;stroke-width:8.2343;stroke-miterlimit:10;}
	.st2{fill:none;stroke:#FFFFFF;stroke-width:8.2343;stroke-linecap:round;stroke-linejoin:round;stroke-miterlimit:10;}
</style>
<g id="XMLID_1_">
	<g>
		<path class="st0" d="M-106.6,321.5l-6.7,9.5l-6.2-9.5l-6.7,9.5l-6.2-9.5l-6.7,9.5l-6.2-9.5l-6.7,9.5l-6.2-9.5l-6.7,9.5l-6.1-9.5
			l-6.8,9.5l-6.2-9.5l-6.7,9.5l-1.6-2.6l-4.5-7l-6.7,9.5l-6.2-9.5l-6.7,9.5l-6.2-9.5l-6.7,9.5l0.1,0.2
			c-13.9-6.1-23.7-20.1-23.7-36.3c0-18.8,13-34.6,30.5-38.6c-1.4-3.7-2.3-7.8-2.3-12.1c0-18.3,14.9-33,33.1-33
			c4.2,0,8.1,0.8,11.7,2.1c3.9-17.7,19.8-31.1,38.8-31.1c18.6,0,34.3,12.9,38.5,30.2c3-0.8,6-1.3,9.2-1.3c18.3,0,33.1,14.8,33.1,33
			c0,3.9-0.8,7.7-2,11.2c20.2,1.9,36,18.9,36,39.6c0,15.2-8.6,28.3-21.1,35l-5.9-8.4l-6.2,9.5h-1.6l-6.2-9.5l-6.7,9.5l-6.2-9.5
			l-6.7,9.5l-3-4.5l-3.3-5l-0.9,1.3l-5.8,8.3L-106.6,321.5z"/>
	</g>
	<g>
		<path class="st1" d="M-229.8,331.2c-13.9-6.1-23.7-20.1-23.7-36.3c0-18.8,13-34.6,30.5-38.6c-1.4-3.7-2.3-7.8-2.3-12.1
			c0-18.3,14.9-33,33.1-33c4.2,0,8.1,0.8,11.7,2.1c3.9-17.7,19.8-31.1,38.8-31.1c18.6,0,34.3,12.9,38.5,30.2c3-0.8,6-1.3,9.2-1.3
			c18.3,0,33.1,14.8,33.1,33c0,3.9-0.8,7.7-2,11.2c20.2,1.9,36,18.9,36,39.6c0,15.2-8.6,28.3-21.1,35"/>
		<path class="st2" d="M-74.5,331.1l6.7-9.5l6.2,9.5h1.6l6.2-9.5l5.9,8.4l0.8,1.1l-38.9,90.3c-18.2,10.4-36.8,13.4-53.1,13
			c-29.6-0.8-52.1-13-52.1-13l-38.7-90.2l-0.1-0.2l6.7-9.5l6.2,9.5"/>
		<polyline class="st2" points="-216.9,331.1 -210.2,321.5 -204,331 -204,331.1 		"/>
		<polyline class="st2" points="-191.1,331.1 -192.7,328.5 -197.2,321.5 -204,331 -204,331.1 		"/>
		<polyline class="st2" points="-191.1,331.1 -184.3,321.5 -178.1,331.1 		"/>
		<polyline class="st2" points="-178.1,331.1 -171.3,321.5 -165.2,331.1 		"/>
		<polyline class="st2" points="-165.2,331.1 -158.4,321.5 -152.2,331.1 		"/>
		<polyline class="st2" points="-152.2,331.1 -145.5,321.5 -139.2,331.1 		"/>
		<polyline class="st2" points="-139.2,331.1 -132.5,321.5 -126.3,331.1 		"/>
		<polyline class="st2" points="-126.3,331.1 -119.5,321.5 -113.3,331.1 		"/>
		<polyline class="st2" points="-113.3,331.1 -106.6,321.5 -100.4,331.1 		"/>
		<polyline class="st2" points="-87.4,331.1 -87.4,331 -90.4,326.5 -93.7,321.5 -94.6,322.8 -100.4,331.1 		"/>
		<polyline class="st2" points="-87.5,331.1 -87.4,331 -80.8,321.5 -74.5,331.1 		"/>
		<line class="st2" x1="-138.5" y1="348.2" x2="-138.5" y2="414.1"/>
		<line class="st2" x1="-169.5" y1="409.5" x2="-188.5" y2="348.2"/>
		<line class="st2" x1="-106.6" y1="409.5" x2="-87.5" y2="348.2"/>
	</g>
</g>
</svg>
